<mxfile host="app.diagrams.net" agent="Mozilla/5.0 (Windows NT 10.0; Win64; x64) AppleWebKit/537.36 (KHTML, like Gecko) Chrome/135.0.0.0 Safari/537.36 Edg/135.0.0.0" version="26.2.14">
  <diagram id="xst4QohZr5qmQAyhh67Q" name="Page-1">
    <mxGraphModel dx="791" dy="945" grid="1" gridSize="10" guides="1" tooltips="1" connect="1" arrows="1" fold="1" page="1" pageScale="1" pageWidth="850" pageHeight="1100" math="0" shadow="0">
      <root>
        <mxCell id="0" />
        <mxCell id="1" parent="0" />
        <mxCell id="KnCVszXwIs_yhPfZvACY-18" style="edgeStyle=orthogonalEdgeStyle;rounded=0;orthogonalLoop=1;jettySize=auto;html=1;exitX=0.5;exitY=1;exitDx=0;exitDy=0;entryX=0.5;entryY=0;entryDx=0;entryDy=0;" edge="1" parent="1" source="KnCVszXwIs_yhPfZvACY-1">
          <mxGeometry relative="1" as="geometry">
            <mxPoint x="250" y="170" as="targetPoint" />
          </mxGeometry>
        </mxCell>
        <mxCell id="KnCVszXwIs_yhPfZvACY-1" value="0" style="ellipse;whiteSpace=wrap;html=1;" vertex="1" parent="1">
          <mxGeometry x="220" y="90" width="60" height="50" as="geometry" />
        </mxCell>
        <mxCell id="KnCVszXwIs_yhPfZvACY-35" style="edgeStyle=orthogonalEdgeStyle;rounded=0;orthogonalLoop=1;jettySize=auto;html=1;entryX=1;entryY=0.5;entryDx=0;entryDy=0;exitX=1;exitY=0.5;exitDx=0;exitDy=0;" edge="1" parent="1" source="KnCVszXwIs_yhPfZvACY-54" target="KnCVszXwIs_yhPfZvACY-52">
          <mxGeometry relative="1" as="geometry">
            <mxPoint x="325" y="290" as="targetPoint" />
            <mxPoint x="350" y="375" as="sourcePoint" />
            <Array as="points">
              <mxPoint x="390" y="375" />
              <mxPoint x="390" y="283" />
            </Array>
          </mxGeometry>
        </mxCell>
        <mxCell id="KnCVszXwIs_yhPfZvACY-33" style="edgeStyle=orthogonalEdgeStyle;rounded=0;orthogonalLoop=1;jettySize=auto;html=1;exitX=0;exitY=0.5;exitDx=0;exitDy=0;" edge="1" parent="1" source="KnCVszXwIs_yhPfZvACY-55">
          <mxGeometry relative="1" as="geometry">
            <mxPoint x="217.5" y="1179.7368678042762" as="targetPoint" />
            <mxPoint x="187.4999999999999" y="528" as="sourcePoint" />
            <Array as="points">
              <mxPoint x="137" y="543" />
              <mxPoint x="137" y="1180" />
            </Array>
          </mxGeometry>
        </mxCell>
        <mxCell id="KnCVszXwIs_yhPfZvACY-26" style="edgeStyle=orthogonalEdgeStyle;rounded=0;orthogonalLoop=1;jettySize=auto;html=1;exitX=0.5;exitY=1;exitDx=0;exitDy=0;entryX=0.5;entryY=0;entryDx=0;entryDy=0;" edge="1" parent="1">
          <mxGeometry relative="1" as="geometry">
            <mxPoint x="250" y="850" as="sourcePoint" />
            <mxPoint x="250" y="880" as="targetPoint" />
          </mxGeometry>
        </mxCell>
        <mxCell id="KnCVszXwIs_yhPfZvACY-32" style="edgeStyle=orthogonalEdgeStyle;rounded=0;orthogonalLoop=1;jettySize=auto;html=1;entryX=1;entryY=0.75;entryDx=0;entryDy=0;" edge="1" parent="1">
          <mxGeometry relative="1" as="geometry">
            <mxPoint x="392.5769230769231" y="770" as="sourcePoint" />
            <mxPoint x="282.5" y="925" as="targetPoint" />
            <Array as="points">
              <mxPoint x="392.5" y="925" />
            </Array>
          </mxGeometry>
        </mxCell>
        <mxCell id="KnCVszXwIs_yhPfZvACY-29" style="edgeStyle=orthogonalEdgeStyle;rounded=0;orthogonalLoop=1;jettySize=auto;html=1;exitX=0.5;exitY=1;exitDx=0;exitDy=0;entryX=0.5;entryY=0;entryDx=0;entryDy=0;" edge="1" parent="1">
          <mxGeometry relative="1" as="geometry">
            <mxPoint x="250" y="940" as="sourcePoint" />
            <mxPoint x="247.5" y="970" as="targetPoint" />
          </mxGeometry>
        </mxCell>
        <mxCell id="KnCVszXwIs_yhPfZvACY-30" style="edgeStyle=orthogonalEdgeStyle;rounded=0;orthogonalLoop=1;jettySize=auto;html=1;exitX=0.5;exitY=1;exitDx=0;exitDy=0;entryX=0.5;entryY=0;entryDx=0;entryDy=0;" edge="1" parent="1">
          <mxGeometry relative="1" as="geometry">
            <mxPoint x="247.5" y="1030" as="sourcePoint" />
            <mxPoint x="247.5" y="1055" as="targetPoint" />
          </mxGeometry>
        </mxCell>
        <mxCell id="KnCVszXwIs_yhPfZvACY-31" style="edgeStyle=orthogonalEdgeStyle;rounded=0;orthogonalLoop=1;jettySize=auto;html=1;exitX=0.5;exitY=1;exitDx=0;exitDy=0;" edge="1" parent="1">
          <mxGeometry relative="1" as="geometry">
            <mxPoint x="248" y="1150" as="targetPoint" />
            <mxPoint x="247.5" y="1115" as="sourcePoint" />
          </mxGeometry>
        </mxCell>
        <mxCell id="KnCVszXwIs_yhPfZvACY-36" value="R1" style="text;html=1;align=center;verticalAlign=middle;resizable=0;points=[];autosize=1;strokeColor=none;fillColor=none;" vertex="1" parent="1">
          <mxGeometry x="320" y="320" width="40" height="30" as="geometry" />
        </mxCell>
        <mxCell id="KnCVszXwIs_yhPfZvACY-37" value="R2" style="text;html=1;align=center;verticalAlign=middle;resizable=0;points=[];autosize=1;strokeColor=none;fillColor=none;" vertex="1" parent="1">
          <mxGeometry x="170" y="720" width="40" height="30" as="geometry" />
        </mxCell>
        <mxCell id="KnCVszXwIs_yhPfZvACY-38" value="R3" style="text;html=1;align=center;verticalAlign=middle;resizable=0;points=[];autosize=1;strokeColor=none;fillColor=none;" vertex="1" parent="1">
          <mxGeometry x="310" y="818" width="40" height="30" as="geometry" />
        </mxCell>
        <mxCell id="KnCVszXwIs_yhPfZvACY-39" value="R4" style="text;html=1;align=center;verticalAlign=middle;resizable=0;points=[];autosize=1;strokeColor=none;fillColor=none;" vertex="1" parent="1">
          <mxGeometry x="310" y="560" width="40" height="30" as="geometry" />
        </mxCell>
        <mxCell id="KnCVszXwIs_yhPfZvACY-47" value="10" style="ellipse;whiteSpace=wrap;html=1;" vertex="1" parent="1">
          <mxGeometry x="220" y="890" width="60" height="50" as="geometry" />
        </mxCell>
        <mxCell id="KnCVszXwIs_yhPfZvACY-48" value="9" style="ellipse;whiteSpace=wrap;html=1;" vertex="1" parent="1">
          <mxGeometry x="365" y="720" width="60" height="50" as="geometry" />
        </mxCell>
        <mxCell id="KnCVszXwIs_yhPfZvACY-49" value="8" style="ellipse;whiteSpace=wrap;html=1;" vertex="1" parent="1">
          <mxGeometry x="220" y="798" width="60" height="50" as="geometry" />
        </mxCell>
        <mxCell id="KnCVszXwIs_yhPfZvACY-66" value="" style="edgeStyle=orthogonalEdgeStyle;rounded=0;orthogonalLoop=1;jettySize=auto;html=1;" edge="1" parent="1" source="KnCVszXwIs_yhPfZvACY-50" target="KnCVszXwIs_yhPfZvACY-56">
          <mxGeometry relative="1" as="geometry" />
        </mxCell>
        <mxCell id="KnCVszXwIs_yhPfZvACY-50" value="6" style="ellipse;whiteSpace=wrap;html=1;" vertex="1" parent="1">
          <mxGeometry x="220" y="608" width="60" height="50" as="geometry" />
        </mxCell>
        <mxCell id="KnCVszXwIs_yhPfZvACY-64" style="edgeStyle=orthogonalEdgeStyle;rounded=0;orthogonalLoop=1;jettySize=auto;html=1;exitX=0.5;exitY=1;exitDx=0;exitDy=0;entryX=0.5;entryY=0;entryDx=0;entryDy=0;" edge="1" parent="1" source="KnCVszXwIs_yhPfZvACY-51" target="KnCVszXwIs_yhPfZvACY-55">
          <mxGeometry relative="1" as="geometry" />
        </mxCell>
        <mxCell id="KnCVszXwIs_yhPfZvACY-51" value="4" style="ellipse;whiteSpace=wrap;html=1;" vertex="1" parent="1">
          <mxGeometry x="220" y="430" width="60" height="50" as="geometry" />
        </mxCell>
        <mxCell id="KnCVszXwIs_yhPfZvACY-61" style="edgeStyle=orthogonalEdgeStyle;rounded=0;orthogonalLoop=1;jettySize=auto;html=1;exitX=0.5;exitY=1;exitDx=0;exitDy=0;entryX=0.5;entryY=0;entryDx=0;entryDy=0;" edge="1" parent="1" source="KnCVszXwIs_yhPfZvACY-52" target="KnCVszXwIs_yhPfZvACY-54">
          <mxGeometry relative="1" as="geometry" />
        </mxCell>
        <mxCell id="KnCVszXwIs_yhPfZvACY-52" value="2" style="ellipse;whiteSpace=wrap;html=1;" vertex="1" parent="1">
          <mxGeometry x="222.5" y="258" width="60" height="50" as="geometry" />
        </mxCell>
        <mxCell id="KnCVszXwIs_yhPfZvACY-62" style="edgeStyle=orthogonalEdgeStyle;rounded=0;orthogonalLoop=1;jettySize=auto;html=1;exitX=0.5;exitY=1;exitDx=0;exitDy=0;entryX=0.5;entryY=0;entryDx=0;entryDy=0;" edge="1" parent="1" source="KnCVszXwIs_yhPfZvACY-53" target="KnCVszXwIs_yhPfZvACY-52">
          <mxGeometry relative="1" as="geometry" />
        </mxCell>
        <mxCell id="KnCVszXwIs_yhPfZvACY-53" value="1" style="ellipse;whiteSpace=wrap;html=1;" vertex="1" parent="1">
          <mxGeometry x="220" y="170" width="60" height="50" as="geometry" />
        </mxCell>
        <mxCell id="KnCVszXwIs_yhPfZvACY-63" style="edgeStyle=orthogonalEdgeStyle;rounded=0;orthogonalLoop=1;jettySize=auto;html=1;exitX=0.5;exitY=1;exitDx=0;exitDy=0;entryX=0.5;entryY=0;entryDx=0;entryDy=0;" edge="1" parent="1" source="KnCVszXwIs_yhPfZvACY-54" target="KnCVszXwIs_yhPfZvACY-51">
          <mxGeometry relative="1" as="geometry" />
        </mxCell>
        <mxCell id="KnCVszXwIs_yhPfZvACY-54" value="3" style="ellipse;shape=doubleEllipse;margin=3;whiteSpace=wrap;html=1;align=center;" vertex="1" parent="1">
          <mxGeometry x="222.5" y="350" width="60" height="50" as="geometry" />
        </mxCell>
        <mxCell id="KnCVszXwIs_yhPfZvACY-65" style="edgeStyle=orthogonalEdgeStyle;rounded=0;orthogonalLoop=1;jettySize=auto;html=1;exitX=0.5;exitY=1;exitDx=0;exitDy=0;entryX=0.5;entryY=0;entryDx=0;entryDy=0;" edge="1" parent="1" source="KnCVszXwIs_yhPfZvACY-55" target="KnCVszXwIs_yhPfZvACY-50">
          <mxGeometry relative="1" as="geometry" />
        </mxCell>
        <mxCell id="KnCVszXwIs_yhPfZvACY-55" value="5" style="ellipse;shape=doubleEllipse;margin=3;whiteSpace=wrap;html=1;align=center;" vertex="1" parent="1">
          <mxGeometry x="220" y="518" width="60" height="50" as="geometry" />
        </mxCell>
        <mxCell id="KnCVszXwIs_yhPfZvACY-67" value="" style="edgeStyle=orthogonalEdgeStyle;rounded=0;orthogonalLoop=1;jettySize=auto;html=1;" edge="1" parent="1" source="KnCVszXwIs_yhPfZvACY-56" target="KnCVszXwIs_yhPfZvACY-49">
          <mxGeometry relative="1" as="geometry" />
        </mxCell>
        <mxCell id="KnCVszXwIs_yhPfZvACY-68" value="" style="edgeStyle=orthogonalEdgeStyle;rounded=0;orthogonalLoop=1;jettySize=auto;html=1;" edge="1" parent="1" source="KnCVszXwIs_yhPfZvACY-56" target="KnCVszXwIs_yhPfZvACY-48">
          <mxGeometry relative="1" as="geometry">
            <Array as="points">
              <mxPoint x="335" y="725" />
              <mxPoint x="335" y="730" />
            </Array>
          </mxGeometry>
        </mxCell>
        <mxCell id="KnCVszXwIs_yhPfZvACY-56" value="7" style="ellipse;shape=doubleEllipse;margin=3;whiteSpace=wrap;html=1;align=center;" vertex="1" parent="1">
          <mxGeometry x="220" y="700" width="60" height="50" as="geometry" />
        </mxCell>
        <mxCell id="KnCVszXwIs_yhPfZvACY-58" value="11" style="ellipse;whiteSpace=wrap;html=1;" vertex="1" parent="1">
          <mxGeometry x="217.5" y="970" width="60" height="50" as="geometry" />
        </mxCell>
        <mxCell id="KnCVszXwIs_yhPfZvACY-59" value="12" style="ellipse;whiteSpace=wrap;html=1;" vertex="1" parent="1">
          <mxGeometry x="217.5" y="1060" width="60" height="50" as="geometry" />
        </mxCell>
        <mxCell id="KnCVszXwIs_yhPfZvACY-60" value="13" style="ellipse;whiteSpace=wrap;html=1;" vertex="1" parent="1">
          <mxGeometry x="217.5" y="1150" width="60" height="50" as="geometry" />
        </mxCell>
      </root>
    </mxGraphModel>
  </diagram>
</mxfile>
